<svg id="Capa_1" enable-background="new 0 0 512 512" height="512" viewBox="0 0 512 512" width="512" xmlns="http://www.w3.org/2000/svg"><g><path d="m45 333.19-15-15v-45h121v180h-121v-45l15-15-15-15v-30z" fill="#efe2dd"/><g><path d="m0 258.19h136v30h-136z" fill="#ffa64d"/></g><path d="m467 333.19 15-15v-45h-121v180h121v-45l-15-15 15-15v-30z" fill="#e1d3ce"/><g><path d="m376 258.19h136v30h-136z" fill="#f73"/></g><path d="m256 67.57-135 110.456v275.164h135 135v-275.164z" fill="#fff5f5"/><path d="m391 178.026-135-110.456v385.62h135z" fill="#efe2dd"/><path d="m256 288.19h-75v165h75 75v-165z" fill="#53433f"/><path d="m256 288.19h75v165h-75z" fill="#3e322e"/><circle cx="256" cy="213.19" fill="#ffa64d" r="45"/><path d="m301 213.19c0-24.814-20.186-45-45-45v90c24.814 0 45-20.186 45-45z" fill="#f73"/><path d="m30 318.19h46v30h-46z" fill="#80aaff"/><path d="m30 378.19h46v30h-46z" fill="#80aaff"/><path d="m436 318.19h46v30h-46z" fill="#4d88ff"/><path d="m436 378.19h46v30h-46z" fill="#4d88ff"/><path d="m211 318.19h30v30h-30z" fill="#80aaff"/><path d="m271 318.19h30v30h-30z" fill="#4d88ff"/><path d="m256 43.81-174.492 142.764 18.984 23.232 155.508-127.236 155.508 127.236 18.984-23.232z" fill="#ffa64d"/><path d="m430.492 186.574-174.492-142.764v38.76l155.508 127.236z" fill="#f73"/><circle cx="256" cy="213.19" fill="#fff5f5" r="15"/><path d="m271 213.19c0-8.276-6.724-15-15-15v30c8.276 0 15-6.724 15-15z" fill="#efe2dd"/><path d="m256 378.19h-45v75h45 45v-75z" fill="#80aaff"/><path d="m256 378.19h45v75h-45z" fill="#4d88ff"/><path d="m256 438.19h-256v30h256 256v-30z" fill="#97de3d"/><path d="m256 438.19h256v30h-256z" fill="#59c36a"/></g></svg>